<svg version="1.1" xmlns="http://www.w3.org/2000/svg" xmlns:xlink="http://www.w3.org/1999/xlink">
    <g transform="translate(41,51)">
        <path fill-rule="evenodd" clip-rule="evenodd" fill="#A9BFB0" d="M-21.839-11.571c0.147-2.407,1.479-4.256,3.727-2.633
	c0.165-3.932,0.624-7.14,1.356-9.768l0.009-0.003c-0.74,2.635-1.2,5.864-1.366,9.816C-20.346-15.772-21.676-13.957-21.839-11.571
	L-21.839-11.571z"/>
        <path fill="#161616" d="M17.612,13.951c-5.209,3.408-16.116,3.912-16.116-8.127c0-12.042,6.718-26.803,12.902-27.49
	C24.221-22.757,26.747,7.973,17.612,13.951L17.612,13.951z"/>
        <path fill="#161616" d="M-16.685,13.951c5.207,3.408,16.115,3.912,16.115-8.127c0-12.042-6.716-26.803-12.901-27.49
	C-23.294-22.757-25.821,7.973-16.685,13.951L-16.685,13.951z"/>
        <path fill="#FEF388" d="M-27.599,33.436V23.377c-2.204,1.85-3.813,3.875-4.985,5.892C-31.022,30.769-29.356,32.161-27.599,33.436
	L-27.599,33.436z"/>
        <path fill="#FEF388" d="M27.6,23.377v10.057c1.757-1.274,3.423-2.666,4.984-4.166C31.412,27.252,29.804,25.227,27.6,23.377
	L27.6,23.377z M0.448,42.374H-0.45H0.448L0.448,42.374z"/>
        <path fill="#F16824" d="M27.6,23.377c-5.2-4.362-13.706-7.749-27.6-7.749c-13.896,0-22.401,3.387-27.599,7.749v10.058
	c7.641,5.542,17.011,8.844,27.149,8.938h0.898c10.14-0.095,19.511-3.396,27.151-8.94V23.377L27.6,23.377z"/>
        <path fill="#F0CEAC" d="M6.82,16.363L0,23.407l-6.822-7.044c0-4.51,3.054-8.166,6.822-8.166C3.767,8.197,6.82,11.853,6.82,16.363
	L6.82,16.363z"/>
        <path fill="#F0CEAC" d="M-0.001,14.347c-10.047,0-17.531-11.156-17.531-23.419c0-19.66,6.231-28.149,17.531-28.149
	c11.301,0,17.531,8.489,17.531,28.149C17.53,3.191,10.047,14.347-0.001,14.347L-0.001,14.347z"/>
        <path fill="#C19969" d="M-6.146,12.865l-0.023-0.007c-0.293,0.488,1.574,2.771,6.162,2.771c4.58,0,6.447-2.275,6.162-2.769
	c-1.896,0.957-3.965,1.487-6.156,1.487C-2.187,14.347-4.252,13.818-6.146,12.865L-6.146,12.865z"/>
        <path fill="#161616" d="M-17.118-29.478c0.688-6.185,5.085-12.901,17.127-12.901c12.04,0,16.422,6.717,17.108,12.901
	C18.208-19.655-18.208-19.655-17.118-29.478L-17.118-29.478z"/>
        <path fill="#FEFAD6" d="M4.632,20.287L0,23.407l-4.632-3.12v21.866c1.524,0.148,3.068,0.227,4.631,0.227
	c1.563,0,3.108-0.078,4.633-0.227V20.287L4.632,20.287z"/>
        <path fill="#161616" d="M-6.356,20.858c-1.111-1.506-0.777-3.95-0.598-5.8C-8.66,15.21-19.937,3.476-21.951,2.89
	c-0.181,1.851,0.132,9.398-1.25,10.662c0.949-0.141,1.635-0.94,2.097-1.723c-0.472,1.587-0.977,3.221-1.154,4.873
	c1.298-1.499,2.198-3.271,2.888-5.117c-0.035,0.394-0.056,0.789-0.048,1.183c1.291-1.331,1.462-1.328,1.462-1.328
	s-1.041,1.111-2.016,3.24c0.6-0.538,1.151-1.127,1.691-1.725c-0.534,1.69-0.841,3.539-0.424,5.222
	c0.15,0.738,0.529,1.503,1.196,1.898c-0.453-0.962-0.33-2.082-0.116-3.127c0.088-0.074,0.173-0.151,0.253-0.234
	c0.045,0.618,0.099,1.235,0.195,1.848c0.434-0.931,0.704-1.946,0.9-2.952c0.282,0.782,0.578,1.561,0.94,2.308
	c-0.087-2.083-0.527-3.437-0.622-3.708c0.003-0.008,0.006-0.017,0.009-0.025c0.069,0.083,0.284,0.415,0.823,1.755
	c0.158-0.363,0.287-0.737,0.403-1.115c-0.06,1.971,0.102,3.952,0.739,5.829c0.129-0.448,0.229-0.906,0.318-1.368
	c0.052,1.034,0.242,2.049,0.667,2.96c0.29,0.696,0.809,1.374,1.54,1.632c-0.818-1.112-0.734-2.673-0.693-3.979
	c0.216,0.817,0.437,1.634,0.728,2.429c0.246-0.997,0.315-2.045,0.313-3.07c0.428,0.713,0.868,1.42,1.369,2.083
	c-0.547-2.275-1.354-3.566-1.354-3.566s0.167,0.03,1.178,1.584c0.084-0.386,0.14-0.778,0.182-1.171
	c0.32,1.945,0.862,3.857,1.847,5.578c0.145-1.656-0.036-3.356-0.193-5.004C-7.779,19.62-7.259,20.537-6.356,20.858L-6.356,20.858z"
                />
        <path fill="#161616" d="M22.694,4.1c0,0-15.096,9.919-15.797,9.673c-0.23,0.938-0.549,1.85-0.773,2.619
	c-0.612,2.152-1.316,4.312-1.652,6.53c1.5-1.637,2.515-3.806,3.148-5.912c-0.125,1.137-0.281,2.314-0.593,3.417
	c0.785-0.66,1.267-1.632,1.66-2.559c-0.298,2.39-0.505,4.883-1.03,7.239c0.79-0.057,1.724-1.999,2.001-2.559
	c0.489-1.149,0.903-2.036,1.569-3.088c0.307,1.151,0.236,2.638,0.062,3.821c0.354-0.583,0.603-1.307,0.698-1.981
	c0.36,0.609,0.891,1.165,1.598,1.344c-0.977-1.096-1.43-3.743-1.104-5.35c0.036-0.025,0.075-0.046,0.112-0.073
	c0.405,1.67,0.827,3.345,1.452,4.941c0.447-2.009,0.299-4.206-0.125-6.222c0.016-0.043,0.031-0.084,0.047-0.128
	c0.406,0.944,0.795,1.922,1.046,2.914c0.044-0.12,0.081-0.241,0.11-0.364c0.007,0.033,0.014,0.061,0.02,0.093
	c0.152,0.607,0.65,2.702,1.41,2.926c-0.004-0.761,0.029-1.531,0.078-2.301c0.469,1.118,0.91,2.246,1.268,3.383
	c0.654-0.444,0.492-2.592,0.453-3.216c-0.102-0.834-0.168-1.551-0.188-2.307c0.001,0,0.001,0.002,0.001,0.002
	c-0.006-0.113-0.006-0.229-0.01-0.343c0-0.261,0.003-0.529,0.014-0.811c0.227,0.227,0.438,0.489,0.641,0.771
	c0.297,1.184,0.723,2.334,1.322,3.363c0.059-0.905,0.055-1.814,0.021-2.723c0.521,0.219,1.095,0.323,1.648,0.167
	c-0.547-0.181-1.142-0.611-1.695-1.158C20.411,11.802,22.694,4.1,22.694,4.1L22.694,4.1z"/>
        <path fill="#1E1F1B" d="M12.387,4.239C11.157,9.227,3.835,3.632-0.002,5.642C-3.339,3.339-11.11,9.42-12.388,4.239
	C-8.824,8.66-7.182-0.588,0.001,1.943C7.181-0.584,8.822,8.657,12.387,4.239L12.387,4.239z"/>
        <path fill-rule="evenodd" clip-rule="evenodd" fill="#191919" d="M-11.924-15.174h3.986c0.373-0.021,0.744-0.022,1.111,0h6.825
	h6.826c0.367-0.022,0.738-0.021,1.111,0h3.986c2.299,0,3.705,2.134,4.237,4.02l0.001,0.002c0.592,1.317,0.535,3.052-0.727,5.202
	c-2.164,3.687-4.992,3.679-7.098,2.442c-1.764-1.036-6.295-5.096-6.182-8.195h-2.156h-2.155c0.113,3.099-4.418,7.159-6.182,8.195
	c-2.106,1.236-4.934,1.244-7.098-2.442c-1.262-2.15-1.318-3.884-0.727-5.202l0.001-0.002C-15.629-13.04-14.224-15.174-11.924-15.174
	L-11.924-15.174z M-0.001-14.53h-4.275c0.549,0.28,1.049,0.659,1.477,1.16c0.207,0.243,0.359,0.502,0.465,0.773h2.334h2.335
	c0.104-0.271,0.257-0.53,0.465-0.773c0.427-0.501,0.928-0.88,1.476-1.16H-0.001L-0.001-14.53z"/>
        <path fill-rule="evenodd" clip-rule="evenodd" fill="#191919" d="M3.292-12.95c2.359-2.77,7.834-1.39,10.489,0.169
	c2.612,1.534,2.53,4.059,1.096,6.502c-1.431,2.437-3.606,3.742-6.213,2.212C6.702-5.219,1.125-10.407,3.292-12.95L3.292-12.95z"/>
        <path fill-rule="evenodd" clip-rule="evenodd" fill="#191919" d="M-3.292-12.95c-2.36-2.77-7.835-1.39-10.49,0.169
	c-2.613,1.534-2.53,4.059-1.096,6.502c1.43,2.436,3.606,3.742,6.212,2.212C-6.703-5.219-1.126-10.407-3.292-12.95L-3.292-12.95z"/>
        <path fill-rule="evenodd" clip-rule="evenodd" fill="#191919" d="M-8.971-15.174h1.033c0.373-0.021,0.744-0.022,1.111,0h2.451
	l-7.17,12.355c-1.124-0.182-2.266-0.85-3.298-2.235L-8.971-15.174L-8.971-15.174z"/>
        <path fill-rule="evenodd" clip-rule="evenodd" fill="#272727" d="M-4.984-14.125c-1.309-0.509-2.916-0.503-4.469-0.218l-5.035,8.675
	c0.886,1.266,2.003,2.118,3.294,2.244L-4.984-14.125L-4.984-14.125z"/>
        <path fill-rule="evenodd" clip-rule="evenodd" fill="#272727" d="M10.841-15.174h1.082c1.142,0,2.062,0.526,2.766,1.287L8.586-3.37
	C8.502-3.415,8.419-3.46,8.337-3.508C7.647-3.913,6.534-4.781,5.442-5.872L10.841-15.174L10.841-15.174z"/>
        <path fill-rule="evenodd" clip-rule="evenodd" fill="#272727" d="M10.258-14.17c1.349,0.332,2.604,0.85,3.523,1.39
	c0.067,0.039,0.132,0.08,0.196,0.121L8.911-3.93C8.829-3.973,8.747-4.018,8.664-4.066C7.981-4.467,6.86-5.358,5.78-6.455
	L10.258-14.17L10.258-14.17z"/>
        <path fill-rule="evenodd" clip-rule="evenodd" fill="#B86CAC" d="M-16.378-31.479h33.033c0.492,0,0.893,0.401,0.893,0.893v9.141
	c0,0.491-0.4,0.892-0.893,0.892h-33.033c-0.491,0-0.892-0.401-0.892-0.892v-9.141C-17.27-31.077-16.869-31.479-16.378-31.479
	L-16.378-31.479z"/>
        <path fill-rule="evenodd" clip-rule="evenodd" fill="#FCCC99" d="M17.548-22.785v1.339c0,0.043-0.002,0.086-0.008,0.128h-34.801
	c-0.006-0.042-0.009-0.085-0.009-0.128v-1.339H17.548L17.548-22.785z"/>
        <polygon fill-rule="evenodd" clip-rule="evenodd" fill="#FCCC99" points="17.548,-25.41 17.548,-23.943 -17.27,-23.943
	-17.27,-25.41 17.548,-25.41 "/>
        <polygon fill-rule="evenodd" clip-rule="evenodd" fill="#FCCC99" points="17.548,-28.036 17.548,-26.568 -17.27,-26.568
	-17.27,-28.036 17.548,-28.036 "/>
        <path fill-rule="evenodd" clip-rule="evenodd" fill="#FCCC99" d="M17.546-30.662c0.002,0.025,0.002,0.05,0.002,0.076v1.392H-17.27
	v-1.392c0-0.025,0.001-0.051,0.003-0.076H17.546L17.546-30.662z"/>
        <path fill="#171717" d="M17.612,13.951c-5.209,3.408-16.116,3.912-16.116-8.127c0-12.042,6.718-26.803,12.902-27.49
	C24.221-22.757,26.747,7.973,17.612,13.951L17.612,13.951z"/>
        <path fill="#B2A86D" d="M27.6,23.377v10.057c1.757-1.274,3.423-2.666,4.984-4.166C31.412,27.252,29.804,25.227,27.6,23.377
	L27.6,23.377z M0.448,42.374H0.094H0.448L0.448,42.374z"/>
        <path fill="#D25A27" d="M27.6,23.377c-5.188-4.352-13.667-7.733-27.506-7.749v26.746h0.354c10.14-0.095,19.511-3.396,27.151-8.94
	V23.377L27.6,23.377z"/>
        <path fill="#E0BD9A" d="M6.82,16.363L0.094,23.31V8.199C3.817,8.259,6.82,11.891,6.82,16.363L6.82,16.363z"/>
        <path fill="#E0BD9A" d="M0.094-37.221C11.335-37.173,17.53-28.677,17.53-9.072c0,12.225-7.437,23.348-17.437,23.417V-37.221
	L0.094-37.221z"/>
        <path fill="#A3835B" d="M0.094,15.627c4.507-0.033,6.345-2.278,6.062-2.768c-1.869,0.943-3.906,1.472-6.062,1.487V15.627
	L0.094,15.627z"/>
        <path fill="#171717" d="M0.094-42.378c11.976,0.032,16.338,6.73,17.023,12.9c0.542,4.894-8.224,7.349-17.023,7.366V-42.378
	L0.094-42.378z"/>
        <path fill="#B0AB9C" d="M4.632,20.287l-4.538,3.057v19.034c1.53-0.002,3.044-0.079,4.538-0.225V20.287L4.632,20.287z"/>
        <path fill="#171717" d="M22.694,4.1c0,0-15.096,9.919-15.797,9.673c-0.23,0.938-0.549,1.85-0.773,2.619
	c-0.612,2.152-1.316,4.312-1.652,6.53c1.5-1.637,2.515-3.806,3.148-5.912c-0.125,1.137-0.281,2.314-0.593,3.417
	c0.785-0.66,1.267-1.632,1.66-2.559c-0.298,2.39-0.505,4.883-1.03,7.239c0.79-0.057,1.724-1.999,2.001-2.559
	c0.489-1.149,0.903-2.036,1.569-3.088c0.307,1.151,0.236,2.638,0.062,3.821c0.354-0.583,0.603-1.307,0.698-1.981
	c0.36,0.609,0.891,1.165,1.598,1.344c-0.977-1.096-1.43-3.743-1.104-5.35c0.036-0.025,0.075-0.046,0.112-0.073
	c0.405,1.67,0.827,3.345,1.452,4.941c0.447-2.009,0.299-4.206-0.125-6.222c0.016-0.043,0.031-0.084,0.047-0.128
	c0.406,0.944,0.795,1.922,1.046,2.914c0.044-0.12,0.081-0.241,0.11-0.364c0.007,0.033,0.014,0.061,0.02,0.093
	c0.152,0.607,0.65,2.702,1.41,2.926c-0.004-0.761,0.029-1.531,0.078-2.301c0.469,1.118,0.91,2.246,1.268,3.383
	c0.654-0.444,0.492-2.592,0.453-3.216c-0.102-0.834-0.168-1.551-0.188-2.307c0.001,0,0.001,0.002,0.001,0.002
	c-0.006-0.113-0.006-0.229-0.01-0.343c0-0.261,0.003-0.529,0.014-0.811c0.227,0.227,0.438,0.489,0.641,0.771
	c0.297,1.184,0.723,2.334,1.322,3.363c0.059-0.905,0.055-1.814,0.021-2.723c0.521,0.219,1.095,0.323,1.648,0.167
	c-0.547-0.181-1.142-0.611-1.695-1.158C20.411,11.802,22.694,4.1,22.694,4.1L22.694,4.1z"/>
        <path fill="#1E1F1B" d="M12.387,4.239c-1.185,4.807-8.126-0.31-12.293,1.359V1.912C7.194-0.502,8.838,8.638,12.387,4.239
	L12.387,4.239z"/>
        <path fill-rule="evenodd" clip-rule="evenodd" fill="#191919" d="M0.094-15.174h6.731c0.367-0.022,0.738-0.021,1.111,0h3.986
	c2.299,0,3.705,2.134,4.237,4.02l0.001,0.002c0.592,1.317,0.535,3.052-0.727,5.202c-2.164,3.687-4.992,3.679-7.098,2.442
	c-1.764-1.036-6.295-5.096-6.182-8.195H0.094v-0.893h2.24c0.104-0.271,0.257-0.53,0.465-0.773c0.427-0.501,0.928-0.88,1.476-1.16
	H0.094V-15.174L0.094-15.174z"/>
        <path fill-rule="evenodd" clip-rule="evenodd" fill="#191919" d="M3.292-12.95c2.359-2.77,7.834-1.39,10.489,0.169
	c2.612,1.534,2.53,4.059,1.096,6.502c-1.431,2.437-3.606,3.742-6.213,2.212C6.702-5.219,1.125-10.407,3.292-12.95L3.292-12.95z"/>
        <path fill-rule="evenodd" clip-rule="evenodd" fill="#252525" d="M10.841-15.174h1.082c1.142,0,2.062,0.526,2.766,1.287L8.586-3.37
	C8.502-3.415,8.419-3.46,8.337-3.508C7.647-3.913,6.534-4.781,5.442-5.872L10.841-15.174L10.841-15.174z"/>
        <path fill-rule="evenodd" clip-rule="evenodd" fill="#252525" d="M10.258-14.17c1.349,0.332,2.604,0.85,3.523,1.39
	c0.067,0.039,0.132,0.08,0.196,0.121L8.911-3.93C8.829-3.973,8.747-4.018,8.664-4.066C7.981-4.467,6.86-5.358,5.78-6.455
	L10.258-14.17L10.258-14.17z"/>
        <path fill-rule="evenodd" clip-rule="evenodd" fill="#A859A2" d="M0.094-31.479h16.562c0.492,0,0.893,0.401,0.893,0.893v9.141
	c0,0.491-0.4,0.892-0.893,0.892H0.094V-31.479L0.094-31.479z"/>
        <path fill-rule="evenodd" clip-rule="evenodd" fill="#D3AB81" d="M17.548-22.785v1.339c0,0.043-0.002,0.086-0.008,0.128H0.094
	v-1.468H17.548L17.548-22.785z"/>
        <polygon fill-rule="evenodd" clip-rule="evenodd" fill="#D3AB81" points="17.548,-25.41 17.548,-23.943 0.094,-23.943 0.094,-25.41
	17.548,-25.41 "/>
        <polygon fill-rule="evenodd" clip-rule="evenodd" fill="#D3AB81" points="17.548,-28.036 17.548,-26.568 0.094,-26.568
	0.094,-28.036 17.548,-28.036 "/>
        <path fill-rule="evenodd" clip-rule="evenodd" fill="#D3AB81" d="M17.546-30.662c0.002,0.025,0.002,0.05,0.002,0.076v1.392H0.094
	v-1.467H17.546L17.546-30.662z"/>
    </g>
</svg>