<svg width="100%" height="100%" version="1.1" xmlns="http://www.w3.org/2000/svg" xmlns:xlink="http://www.w3.org/1999/xlink">
	<g transform="translate(41,51)">
		<path fill="#C0BCBD" d="M-29.387,33.594V22.852c-2.291,1.952-3.976,4.086-5.215,6.215C-32.974,30.695-31.23,32.207-29.387,33.594
		L-29.387,33.594z"/>
		<path fill="#C0BCBD" d="M29.383,22.852v10.746c1.845-1.387,3.589-2.9,5.219-4.529C33.362,26.938,31.675,24.805,29.383,22.852
		L29.383,22.852z M0.036,43.398h-0.07H0.036L0.036,43.398z"/>
		<path fill="#414040" d="M29.383,22.852c-5.535-4.719-14.595-8.382-29.381-8.382c-14.795,0-23.854,3.663-29.389,8.382v10.742
		c8.175,6.148,18.338,9.797,29.353,9.805h0.07c11.013-0.008,21.173-3.654,29.348-9.801V22.852L29.383,22.852z"/>
		<path fill="#F0CEAC" d="M11.046,14.998c0,4.877-4.943,7.619-11.044,7.619s-11.053-2.742-11.053-7.619
		c0-4.878,4.952-8.831,11.053-8.832C6.103,6.166,11.046,10.12,11.046,14.998L11.046,14.998z"/>
		<path fill="#C0BCBD" d="M14.544,15.977l-3.264,12.691c-2.123-2.838-5.604-5.041-11.278-5.041c-5.683,0-9.155,2.203-11.279,5.041
		l-3.272-12.691l4.36-4.407c0,0,0.679,2.784,3.699,6.056c3.011,3.271,6.492,4.992,6.492,4.992s3.473-1.721,6.493-4.992
		c3.01-3.271,3.698-6.056,3.698-6.056L14.544,15.977L14.544,15.977z"/>
		<path fill="#EF6696" d="M-18.23,38.779c-0.662,0-1.28,0.125-1.806,0.341c1.704,0.766,3.46,1.436,5.261,2.005l0-0.036
		C-14.775,39.813-16.324,38.779-18.23,38.779L-18.23,38.779z"/>
		<path fill="#FFFFFF" d="M-14.775,41.089l0,0.037c1.965,0.622,3.983,1.124,6.046,1.495c0.542-0.407,0.872-0.943,0.872-1.532
		c0-1.275-1.549-2.31-3.455-2.31C-13.226,38.779-14.775,39.813-14.775,41.089L-14.775,41.089z"/>
		<path fill="#EF6696" d="M-7.856,41.089c0,0.786,0.59,1.48,1.49,1.897c1.005,0.131,2.02,0.229,3.043,0.297
		c1.383-0.302,2.385-1.17,2.385-2.194c0-1.275-1.549-2.31-3.464-2.31C-6.307,38.779-7.856,39.813-7.856,41.089L-7.856,41.089z"/>
		<path fill="#A7D38B" d="M-0.938,41.089c0,1.13,1.213,2.07,2.818,2.271c0.608-0.023,1.215-0.055,1.818-0.1
		c1.327-0.322,2.273-1.172,2.273-2.171c0-1.275-1.54-2.31-3.455-2.31C0.612,38.779-0.938,39.813-0.938,41.089L-0.938,41.089z"/>
		<path fill="#FAA74B" d="M5.972,41.089c0,0.715,0.488,1.354,1.254,1.777c1.883-0.278,3.73-0.666,5.537-1.153
		c0.084-0.198,0.129-0.408,0.129-0.624c0-1.275-1.551-2.31-3.456-2.31C7.521,38.779,5.972,39.813,5.972,41.089L5.972,41.089z"/>
		<path fill="#FFFFFF" d="M16.346,38.779c-1.905,0-3.454,1.034-3.454,2.31c0,0.194,0.035,0.382,0.103,0.562
		c2.05-0.562,4.047-1.254,5.979-2.066C18.339,39.091,17.398,38.779,16.346,38.779L16.346,38.779z"/>
		<path fill="#BF9E78" d="M-21.685,36.47c0-1.274-1.549-2.31-3.463-2.31c-0.97,0-1.847,0.268-2.475,0.699
		c1.646,1.127,3.364,2.157,5.146,3.08C-21.982,37.541-21.685,37.028-21.685,36.47L-21.685,36.47z"/>
		<path fill="#B09AA8" d="M-14.775,36.47c0-1.274-1.549-2.31-3.455-2.31c-1.906,0-3.455,1.035-3.455,2.31
		c0,1.276,1.549,2.31,3.455,2.31C-16.324,38.779-14.775,37.746-14.775,36.47L-14.775,36.47z"/>
		<path fill="#A7D38B" d="M-14.775,36.47c0,1.276,1.549,2.31,3.464,2.31c1.906,0,3.455-1.033,3.455-2.31
		c0-1.274-1.549-2.31-3.455-2.31C-13.226,34.16-14.775,35.195-14.775,36.47L-14.775,36.47z"/>
		<path fill="#FAA74B" d="M-7.856,36.47c0,1.276,1.549,2.31,3.455,2.31c1.915,0,3.464-1.033,3.464-2.31c0-1.274-1.549-2.31-3.464-2.31
		C-6.307,34.16-7.856,35.195-7.856,36.47L-7.856,36.47z"/>
		<path fill="#FFFFFF" d="M-0.938,36.47c0,1.276,1.549,2.31,3.455,2.31c1.915,0,3.455-1.033,3.455-2.31c0-1.274-1.54-2.31-3.455-2.31
		C0.612,34.16-0.938,35.195-0.938,36.47L-0.938,36.47z"/>
		<path fill="#E1D89F" d="M5.972,36.47c0,1.276,1.549,2.31,3.464,2.31c1.905,0,3.456-1.033,3.456-2.31c0-1.274-1.551-2.31-3.456-2.31
		C7.521,34.16,5.972,35.195,5.972,36.47L5.972,36.47z"/>
		<path fill="#4EA291" d="M19.81,36.47c0-1.274-1.549-2.31-3.464-2.31c-1.905,0-3.454,1.035-3.454,2.31c0,1.276,1.549,2.31,3.454,2.31
		C18.261,38.779,19.81,37.746,19.81,36.47L19.81,36.47z"/>
		<path fill="#C3CFE2" d="M26.48,35.622c-0.507-0.856-1.756-1.462-3.215-1.462c-1.906,0-3.455,1.035-3.455,2.31
		c0,0.837,0.667,1.569,1.664,1.976C23.202,37.6,24.874,36.657,26.48,35.622L26.48,35.622z"/>
		<path fill="#FAA74B" d="M-21.685,31.851c0-1.275-1.549-2.309-3.463-2.309c-1.906,0-3.456,1.033-3.456,2.309
		c0,1.276,1.55,2.31,3.456,2.31C-23.234,34.16-21.685,33.127-21.685,31.851L-21.685,31.851z"/>
		<path fill="#FFFFFF" d="M-29.387,30.389v2.925c0.487-0.397,0.783-0.907,0.783-1.463C-28.604,31.296-28.899,30.787-29.387,30.389
		L-29.387,30.389z"/>
		<path fill="#EF6696" d="M-14.775,31.851c0-1.275-1.549-2.309-3.455-2.309c-1.906,0-3.455,1.033-3.455,2.309
		c0,1.276,1.549,2.31,3.455,2.31C-16.324,34.16-14.775,33.127-14.775,31.851L-14.775,31.851z"/>
		<path fill="#FFFFFF" d="M-14.775,31.851c0,1.276,1.549,2.31,3.464,2.31c1.906,0,3.455-1.033,3.455-2.31
		c0-1.275-1.549-2.309-3.455-2.309C-13.226,29.542-14.775,30.575-14.775,31.851L-14.775,31.851z"/>
		<path fill="#BF9E78" d="M-7.856,31.851c0,1.276,1.549,2.31,3.455,2.31c1.915,0,3.464-1.033,3.464-2.31
		c0-1.275-1.549-2.309-3.464-2.309C-6.307,29.542-7.856,30.575-7.856,31.851L-7.856,31.851z"/>
		<path fill="#BEACD4" d="M-0.938,31.851c0,1.276,1.549,2.31,3.455,2.31c1.915,0,3.455-1.033,3.455-2.31
		c0-1.275-1.54-2.309-3.455-2.309C0.612,29.542-0.938,30.575-0.938,31.851L-0.938,31.851z"/>
		<path fill="#FFFFFF" d="M5.972,31.851c0,1.276,1.549,2.31,3.464,2.31c1.905,0,3.456-1.033,3.456-2.31
		c0-1.275-1.551-2.309-3.456-2.309C7.521,29.542,5.972,30.575,5.972,31.851L5.972,31.851z"/>
		<path fill="#A7D38B" d="M19.81,31.851c0-1.275-1.549-2.309-3.464-2.309c-1.905,0-3.454,1.033-3.454,2.309
		c0,1.276,1.549,2.31,3.454,2.31C18.261,34.16,19.81,33.127,19.81,31.851L19.81,31.851z"/>
		<path fill="#FFFFFF" d="M26.72,31.851c0-1.275-1.549-2.309-3.455-2.309s-3.455,1.033-3.455,2.309c0,1.276,1.549,2.31,3.455,2.31
		S26.72,33.127,26.72,31.851L26.72,31.851z"/>
		<path fill="#E1D89F" d="M26.72,31.851c0,0.964,0.887,1.787,2.14,2.133c0.175-0.128,0.351-0.255,0.523-0.386v-3.992
		C27.861,29.847,26.72,30.759,26.72,31.851L26.72,31.851z"/>
		<path fill="#A7D38B" d="M-21.685,27.232c0-1.275-1.549-2.31-3.463-2.31c-1.906,0-3.456,1.034-3.456,2.31s1.55,2.31,3.456,2.31
		C-23.234,29.542-21.685,28.508-21.685,27.232L-21.685,27.232z"/>
		<path fill="#FFFFFF" d="M-29.387,25.771v2.924c0.487-0.399,0.783-0.907,0.783-1.462S-28.899,26.168-29.387,25.771L-29.387,25.771z"
				/>
		<path fill="#FFFFFF" d="M-14.775,27.232c0-1.275-1.549-2.31-3.455-2.31c-1.906,0-3.455,1.034-3.455,2.31s1.549,2.31,3.455,2.31
		C-16.324,29.542-14.775,28.508-14.775,27.232L-14.775,27.232z"/>
		<path fill="#A7D38B" d="M-12.216,25.006c-1.471,0.267-2.559,1.16-2.559,2.227c0,1.275,1.549,2.31,3.464,2.31
		c1.906,0,3.455-1.034,3.455-2.31c0-0.478-0.218-0.92-0.592-1.289c-1.141,0.78-2.071,1.712-2.829,2.725L-12.216,25.006
		L-12.216,25.006z"/>
		<path fill="#A2B2C2" d="M-7.856,27.232c0,1.275,1.549,2.31,3.455,2.31c1.915,0,3.464-1.034,3.464-2.31s-1.549-2.31-3.464-2.31
		C-6.307,24.923-7.856,25.957-7.856,27.232L-7.856,27.232z"/>
		<path fill="#FFFFFF" d="M-0.938,27.232c0,1.275,1.549,2.31,3.455,2.31c1.915,0,3.455-1.034,3.455-2.31s-1.54-2.31-3.455-2.31
		C0.612,24.923-0.938,25.957-0.938,27.232L-0.938,27.232z"/>
		<path fill="#FAA74B" d="M7.46,25.338c-0.896,0.417-1.488,1.109-1.488,1.895c0,1.275,1.549,2.31,3.464,2.31
		c1.905,0,3.456-1.034,3.456-2.31c0-0.581-0.322-1.109-0.854-1.516l-0.758,2.951C10.316,27.377,9.062,26.219,7.46,25.338L7.46,25.338
		z"/>
		<path fill="#78CAB7" d="M19.81,27.232c0-1.275-1.549-2.31-3.464-2.31c-1.905,0-3.454,1.034-3.454,2.31s1.549,2.31,3.454,2.31
		C18.261,29.542,19.81,28.508,19.81,27.232L19.81,27.232z"/>
		<path fill="#93AA8A" d="M26.72,27.232c0-1.275-1.549-2.31-3.455-2.31s-3.455,1.034-3.455,2.31s1.549,2.31,3.455,2.31
		S26.72,28.508,26.72,27.232L26.72,27.232z"/>
		<path fill="#FFFFFF" d="M26.72,27.232c0,1.092,1.141,2.004,2.663,2.246v-4.492C27.861,25.227,26.72,26.141,26.72,27.232
		L26.72,27.232z"/>
		<path fill="#A3B6D4" d="M-21.685,22.613c0-1.275-1.549-2.309-3.463-2.309c-0.279,0-0.548,0.023-0.81,0.066
		c-0.932,0.57-1.784,1.17-2.576,1.789c-0.043,0.147-0.07,0.299-0.07,0.453c0,1.276,1.55,2.31,3.456,2.31
		C-23.234,24.923-21.685,23.889-21.685,22.613L-21.685,22.613z"/>
		<path fill="#A3B6D4" d="M-28.656,22.25c-0.244,0.199-0.496,0.398-0.731,0.602v1.225c0.487-0.399,0.783-0.908,0.783-1.463
		C-28.604,22.49-28.621,22.369-28.656,22.25L-28.656,22.25z"/>
		<path fill="#BF9E78" d="M-14.775,22.613c0-1.275-1.549-2.309-3.455-2.309c-1.906,0-3.455,1.033-3.455,2.309
		c0,1.276,1.549,2.31,3.455,2.31C-16.324,24.923-14.775,23.889-14.775,22.613L-14.775,22.613z"/>
		<path fill="#BEACD4" d="M-14.775,22.613c0,1.056,1.062,1.943,2.515,2.219l-1.062-4.098C-14.201,21.153-14.775,21.838-14.775,22.613
		L-14.775,22.613z"/>
		<path fill="#78CAB7" d="M-4.401,24.923c1.34,0,2.498-0.509,3.073-1.253c-1.785,0.115-3.333,0.465-4.673,0.988
		C-5.524,24.826-4.976,24.923-4.401,24.923L-4.401,24.923z"/>
		<path fill="#A3B6D4" d="M-0.581,23.635c0.565,0.763,1.74,1.288,3.098,1.288c0.923,0,1.768-0.244,2.385-0.64
		c-1.418-0.419-3.037-0.656-4.899-0.656C-0.198,23.627-0.389,23.63-0.581,23.635L-0.581,23.635z"/>
		<path fill="#B09AA8" d="M12.892,22.613c0-0.055-0.01-0.109-0.01-0.164l-0.287,1.094C12.787,23.259,12.892,22.945,12.892,22.613
		L12.892,22.613z"/>
		<path fill="#FEF388" d="M19.81,22.613c0-1.275-1.549-2.309-3.464-2.309c-1.905,0-3.454,1.033-3.454,2.309
		c0,1.276,1.549,2.31,3.454,2.31C18.261,24.923,19.81,23.889,19.81,22.613L19.81,22.613z"/>
		<path fill="#EF6696" d="M26.72,22.613c0-1.275-1.549-2.309-3.455-2.309s-3.455,1.033-3.455,2.309c0,1.276,1.549,2.31,3.455,2.31
		S26.72,23.889,26.72,22.613L26.72,22.613z"/>
		<path fill="#A1A595" d="M27.355,21.287c-0.399,0.375-0.635,0.833-0.635,1.326c0,1.093,1.141,2.006,2.663,2.245v-2.007
		C28.757,22.314,28.078,21.793,27.355,21.287L27.355,21.287z"/>
		<path fill="#FFFFFF" d="M-21.703,18.188c-1.488,0.634-2.846,1.329-4.082,2.075c0.209,0.025,0.418,0.041,0.636,0.041
		C-23.339,20.305-21.85,19.373-21.703,18.188L-21.703,18.188z"/>
		<path fill="#4EA291" d="M-14.775,17.994c0-0.69-0.453-1.309-1.175-1.73c-2.097,0.539-4.003,1.184-5.726,1.912
		c0.139,1.191,1.627,2.129,3.446,2.129C-16.324,20.305-14.775,19.27-14.775,17.994L-14.775,17.994z"/>
		<path fill="#FFFFFF" d="M-14.775,17.994c0,0.697,0.47,1.322,1.201,1.744l-0.749-2.884C-14.609,17.191-14.775,17.58-14.775,17.994
		L-14.775,17.994z"/>
		<path fill="#78CAB7" d="M19.81,17.994c0-0.203-0.043-0.4-0.121-0.59c-1.532-0.547-3.186-1.032-4.979-1.441
		c-0.07,0.021-0.122,0.049-0.183,0.074l-0.87,3.401c0.626,0.528,1.601,0.866,2.688,0.866C18.261,20.305,19.81,19.27,19.81,17.994
		L19.81,17.994z"/>
		<path fill="#4EA291" d="M19.897,17.477c-0.062,0.167-0.087,0.34-0.087,0.518c0,1.275,1.549,2.311,3.455,2.311
		c0.714,0,1.375-0.145,1.924-0.391C23.623,19.016,21.864,18.195,19.897,17.477L19.897,17.477z"/>
		<path fill="#F0CEAC" d="M-19.028-4.134c-1.242,0-4.34-3.113-4.34-6.15c0-4.867,1.542-5.797,4.34-5.797l0.156,0
		c1.069-16.74,7.656-20.127,18.806-20.126c11.15-0.001,17.737,3.387,18.806,20.126l0.109,0c2.799,0,4.342,0.93,4.342,5.797
		c0,3.037-3.1,6.15-4.342,6.15c-0.246,0-0.568-0.124-0.924-0.346C14.732,6.428,4.482,15.991-0.066,15.991
		c-4.551,0-14.813-9.578-17.999-20.496C-18.436-4.267-18.772-4.134-19.028-4.134L-19.028-4.134z"/>
		<path fill="#C19969" d="M-9.065,10.371l-0.01-0.01c-0.371,0.699,6.445,8.188,9.16,8.188c2.714,0,9.222-7.482,8.851-8.181
		l-0.013,0.012c-3.371,3.444-6.825,5.61-8.989,5.61C-2.232,15.991-5.691,13.821-9.065,10.371L-9.065,10.371z"/>
		<path fill="#010101" d="M0.644,1.612C2.678,1.371,3.775,2.185,5.031,3.66c0.641,0.756,1.564,1.09,2.445,1.472
		c0.176,0.065,1.764,0.56,1.32,0.735c-1.854,0.73-3.577,0.035-4.6-1.601c-0.52-0.845-0.918-1.558-1.795-2.072
		C2.031,2.04,0.75,1.877,0.644,1.612L0.644,1.612z"/>
		<path fill="#010101" d="M-0.787,1.74c-0.686,0.084-1.493,0.211-2.064,0.627c-0.805,0.501-1.163,1.418-1.669,2.175
		C-5.043,5.32-5.708,5.875-6.638,6.076C-6.905,6.132-9.053,6.25-9.053,5.754c0-0.237,1.509-0.648,1.738-0.742
		c0.967-0.41,1.755-0.863,2.419-1.694c0.617-0.775,1.219-1.312,2.169-1.623C-2.321,1.612-0.969,1.334-0.787,1.74L-0.787,1.74z"/>
		<path fill="#432314" d="M18.917-11.967c0,0-1.557-9.159-6.358-17.317C9.8-26.243,3.488-23.702-0.03-23.702
		s-9.861-2.577-12.586-5.582c-4.802,8.158-6.359,17.317-6.359,17.317c-0.389-15.6,2.077-23.183,5.551-21.467
		c-3.794-11.592,6.84-9.875,13.394-9.875c6.555,0,17.19-1.717,13.396,9.875C16.841-35.15,19.308-27.566,18.917-11.967L18.917-11.967z
		"/>
		<path fill-rule="evenodd" clip-rule="evenodd" fill="#3A3B3B" d="M-1.876-11.061c0.132,0.44,0.162,0.89,0.075,1.339
		c-0.546,2.801-3.441,4.354-8.976,3.388c-5.535-0.965-6.757-5.161-6.323-7.812c0.052-0.32,0.115-0.584,0.195-0.8
		c0.883-0.084,1.8-0.128,2.742-0.128c5.839,0,10.762,1.701,12.285,4.022L-1.876-11.061L-1.876-11.061z"/>
		<path fill-rule="evenodd" clip-rule="evenodd" fill="#595A5C" d="M-11.399-6.46c-0.879-0.204-1.638-0.495-2.29-0.85
		c0.308-1.238,1.089-2.946,2.214-4.702c0.656-1.024,1.346-1.936,2.004-2.676c1.068,0.184,2.065,0.427,2.969,0.722
		c-0.395,1.123-1.072,2.486-1.965,3.881C-9.44-8.563-10.489-7.292-11.399-6.46L-11.399-6.46z"/>
		<path fill-rule="evenodd" clip-rule="evenodd" fill="#3A3B3B" d="M1.699-11.061c-0.133,0.44-0.162,0.89-0.074,1.339
		c0.546,2.801,3.439,4.354,8.975,3.388c5.535-0.965,6.758-5.161,6.324-7.812c-0.053-0.32-0.116-0.584-0.196-0.8
		c-0.883-0.084-1.8-0.128-2.741-0.128c-5.839,0-10.762,1.701-12.285,4.022L1.699-11.061L1.699-11.061z"/>
		<path fill-rule="evenodd" clip-rule="evenodd" fill="#595A5C" d="M6.498-6.093C7.099-6.039,7.755-6.031,8.47-6.075
		c1.004-0.791,2.244-2.229,3.385-4.009c1.215-1.896,2.029-3.735,2.277-4.989h-0.146c-1.003,0-1.979,0.05-2.916,0.145
		c-0.724,0.779-1.494,1.778-2.225,2.917C7.28-9.566,6.378-7.216,6.498-6.093L6.498-6.093z"/>
		<path fill-rule="evenodd" clip-rule="evenodd" fill="#191919" d="M4.789-14.732l0.041,0.005c2.099-0.903,5.062-1.467,8.346-1.467
		c1.854,0,3.604,0.179,5.156,0.498v0.951c-1.357-0.213-2.82-0.329-4.346-0.329c-2.364,0-4.578,0.279-6.478,0.765l-0.063,0.017
		l-0.115,0.03l-0.129,0.035l-0.111,0.031l-0.053,0.015l-0.162,0.046L6.8-14.114l-0.137,0.041l-0.021,0.007l-0.008,0.002l-0.033,0.01
		l-0.146,0.046L6.428-14l-0.024,0.008l-0.166,0.054l-0.03,0.011l-0.153,0.052l-0.029,0.01l-0.031,0.011l-0.115,0.04l-0.109,0.04
		l-0.087,0.032l-0.076,0.029L5.47-13.662l-0.053,0.021l-0.145,0.058l-0.054,0.022l-0.116,0.048l-0.029,0.012l-0.01,0.005l-0.141,0.06
		l-0.058,0.025l-0.131,0.059l-0.038,0.018l-0.123,0.057l-0.068,0.033l-0.088,0.043l-0.076,0.038l-0.105,0.053l-0.045,0.023
		l-0.119,0.062l-0.055,0.029l-0.105,0.059l-0.02,0.011H3.891l-0.021,0.012l-0.105,0.06l-0.044,0.025l-0.112,0.067l-0.041,0.024
		l-0.112,0.07l-0.041,0.026l-0.09,0.058L3.3-12.567l-0.006,0.004l-0.007,0.004l-0.11,0.075l-0.023,0.016
		c-0.039,0.027-0.078,0.054-0.115,0.082l-0.021,0.015l-0.11,0.081L2.9-12.284l-0.014,0.01l-0.102,0.079l-0.01,0.008l-0.012,0.009
		l-0.087,0.071l-0.04,0.033l-0.09,0.078l-0.02,0.016c-0.033,0.029-0.066,0.059-0.099,0.089l-0.001,0.001l-0.004,0.003
		c-0.031,0.029-0.061,0.058-0.09,0.086l-0.021,0.02c-0.027,0.028-0.057,0.056-0.083,0.083l-0.024,0.025
		c-0.027,0.028-0.053,0.055-0.079,0.083l-0.017,0.019c-0.027,0.03-0.055,0.06-0.08,0.09l-0.003,0.003l-0.003,0.003
		c-0.025,0.029-0.05,0.059-0.074,0.088l-0.02,0.023c-0.022,0.028-0.045,0.057-0.066,0.085l-0.023,0.031
		c-0.049,0.065-0.096,0.13-0.139,0.196c-0.01-0.045-0.018-0.091-0.025-0.138c-0.617-0.122-1.311-0.191-2.043-0.191
		c-0.515,0-1.01,0.034-1.475,0.097c-0.008,0.078-0.02,0.155-0.037,0.232c-0.046-0.069-0.095-0.138-0.146-0.207l-0.018-0.023
		c-0.022-0.029-0.044-0.057-0.067-0.085l-0.005-0.006l-0.004-0.006c-0.024-0.03-0.049-0.059-0.075-0.088l-0.016-0.019
		c-0.025-0.029-0.051-0.058-0.077-0.087l-0.023-0.024l-0.076-0.081l-0.008-0.008l-0.01-0.01l-0.082-0.082l-0.011-0.011l-0.006-0.007
		c-0.031-0.029-0.062-0.059-0.093-0.088l-0.014-0.013l-0.095-0.085l-0.026-0.023l-0.092-0.078l-0.026-0.021l-0.093-0.076
		l-0.009-0.007l-0.009-0.007l-0.105-0.081l-0.022-0.017l-0.101-0.075l-0.037-0.027l-0.098-0.07l-0.042-0.028l-0.081-0.055
		l-0.045-0.03l-0.102-0.066l-0.042-0.027l-0.106-0.066l-0.058-0.035l-0.069-0.042l-0.088-0.051l-0.07-0.04l-0.056-0.032l-0.09-0.049
		l-0.01-0.005l-0.078-0.042l-0.004-0.002l-0.093-0.048v0l-0.075-0.038l-0.06-0.031l-0.123-0.061l-0.05-0.024l-0.075-0.036
		l-0.099-0.046l-0.016-0.008l-0.073-0.033l-0.011-0.005l-0.101-0.046l-0.086-0.037l-0.016-0.007l-0.104-0.044l-0.08-0.033
		l-0.041-0.017l-0.09-0.037l-0.107-0.042l-0.107-0.042h-0.001l-0.109-0.042l-0.108-0.04l-0.007-0.002l-0.196-0.071l-0.04-0.014
		l-0.097-0.034l-0.114-0.039l-0.101-0.033l-0.015-0.005l-0.117-0.038l-0.101-0.032l-0.04-0.013c-0.111-0.034-0.223-0.068-0.335-0.101
		l-0.122-0.035c-0.203-0.058-0.411-0.113-0.622-0.167c-1.875-0.469-4.049-0.737-6.368-0.737c-1.526,0-2.989,0.116-4.345,0.329v-0.951
		c1.551-0.319,3.302-0.498,5.156-0.498c3.277,0,6.234,0.561,8.332,1.46c1.312,0.313,3.029,0.504,4.908,0.504
		C1.763-14.229,3.478-14.419,4.789-14.732L4.789-14.732z M-1.842-11.283c-0.061,0.008-0.122,0.017-0.182,0.026l-0.001-0.001
		L-1.842-11.283L-1.842-11.283z M2.527-11.981c-0.033,0.029-0.066,0.059-0.099,0.089L2.527-11.981L2.527-11.981z"/>
		<path fill="#9E9B9D" d="M29.383,22.852v10.746c1.845-1.387,3.589-2.9,5.219-4.529C33.362,26.938,31.675,24.805,29.383,22.852
		L29.383,22.852z"/>
		<path fill="#3A3838" d="M29.383,22.852c-5.514-4.701-14.526-8.354-29.211-8.381v28.926c10.96-0.038,21.07-3.678,29.211-9.799V22.852
		L29.383,22.852z"/>
		<path fill="#E0BD9A" d="M11.046,14.998c0,4.832-4.852,7.567-10.874,7.618V6.168C6.195,6.24,11.046,10.166,11.046,14.998
		L11.046,14.998z"/>
		<path fill="#9E9B9D" d="M14.544,15.977l-3.264,12.691c-2.102-2.809-5.535-4.998-11.108-5.041v-1.098
		c0.731-0.389,3.697-2.061,6.323-4.904c3.01-3.271,3.698-6.056,3.698-6.056L14.544,15.977L14.544,15.977z"/>
		<path fill="#85C881" d="M0.172,42.785c0.468,0.289,1.056,0.493,1.708,0.574c0.608-0.023,1.215-0.055,1.818-0.1
		c1.327-0.322,2.273-1.172,2.273-2.171c0-1.275-1.54-2.31-3.455-2.31c-0.904,0-1.729,0.233-2.345,0.614V42.785L0.172,42.785z"/>
		<path fill="#B17B48" d="M5.972,41.089c0,0.715,0.488,1.354,1.254,1.777c1.883-0.278,3.73-0.666,5.537-1.153
		c0.084-0.198,0.129-0.408,0.129-0.624c0-1.275-1.551-2.31-3.456-2.31C7.521,38.779,5.972,39.813,5.972,41.089L5.972,41.089z"/>
		<path fill="#D3D3D3" d="M16.346,38.779c-1.905,0-3.454,1.034-3.454,2.31c0,0.194,0.035,0.382,0.103,0.562
		c2.05-0.562,4.047-1.254,5.979-2.066C18.339,39.091,17.398,38.779,16.346,38.779L16.346,38.779z"/>
		<path fill="#D3D3D3" d="M0.172,38.165c0.616,0.382,1.44,0.614,2.345,0.614c1.915,0,3.455-1.033,3.455-2.31
		c0-1.274-1.54-2.31-3.455-2.31c-0.904,0-1.729,0.234-2.345,0.615V38.165L0.172,38.165z"/>
		<path fill="#BAB486" d="M5.972,36.47c0,1.276,1.549,2.31,3.464,2.31c1.905,0,3.456-1.033,3.456-2.31c0-1.274-1.551-2.31-3.456-2.31
		C7.521,34.16,5.972,35.195,5.972,36.47L5.972,36.47z"/>
		<path fill="#3C7A71" d="M19.81,36.47c0-1.274-1.549-2.31-3.464-2.31c-1.905,0-3.454,1.035-3.454,2.31c0,1.276,1.549,2.31,3.454,2.31
		C18.261,38.779,19.81,37.746,19.81,36.47L19.81,36.47z"/>
		<path fill="#A3AEBE" d="M26.48,35.622c-0.507-0.856-1.756-1.462-3.215-1.462c-1.906,0-3.455,1.035-3.455,2.31
		c0,0.837,0.667,1.569,1.664,1.976C23.202,37.6,24.874,36.657,26.48,35.622L26.48,35.622z"/>
		<path fill="#A590C4" d="M0.172,33.547c0.616,0.381,1.44,0.613,2.345,0.613c1.915,0,3.455-1.033,3.455-2.31
		c0-1.275-1.54-2.309-3.455-2.309c-0.904,0-1.729,0.233-2.345,0.614V33.547L0.172,33.547z"/>
		<path fill="#D3D3D3" d="M5.972,31.851c0,1.276,1.549,2.31,3.464,2.31c1.905,0,3.456-1.033,3.456-2.31
		c0-1.275-1.551-2.309-3.456-2.309C7.521,29.542,5.972,30.575,5.972,31.851L5.972,31.851z"/>
		<path fill="#85C881" d="M19.81,31.851c0-1.275-1.549-2.309-3.464-2.309c-1.905,0-3.454,1.033-3.454,2.309
		c0,1.276,1.549,2.31,3.454,2.31C18.261,34.16,19.81,33.127,19.81,31.851L19.81,31.851z"/>
		<path fill="#D3D3D3" d="M26.72,31.851c0-1.275-1.549-2.309-3.455-2.309s-3.455,1.033-3.455,2.309c0,1.276,1.549,2.31,3.455,2.31
		S26.72,33.127,26.72,31.851L26.72,31.851z"/>
		<path fill="#BAB486" d="M26.72,31.851c0,0.964,0.887,1.787,2.14,2.133c0.175-0.128,0.351-0.255,0.523-0.386v-3.992
		C27.861,29.847,26.72,30.759,26.72,31.851L26.72,31.851z"/>
		<path fill="#D3D3D3" d="M0.172,28.928c0.616,0.381,1.44,0.614,2.345,0.614c1.915,0,3.455-1.034,3.455-2.31s-1.54-2.31-3.455-2.31
		c-0.904,0-1.729,0.233-2.345,0.614V28.928L0.172,28.928z"/>
		<path fill="#B17B48" d="M7.46,25.338c-0.896,0.417-1.488,1.109-1.488,1.895c0,1.275,1.549,2.31,3.464,2.31
		c1.905,0,3.456-1.034,3.456-2.31c0-0.581-0.322-1.109-0.854-1.516l-0.758,2.951C10.316,27.377,9.062,26.219,7.46,25.338L7.46,25.338
		z"/>
		<path fill="#5FAE9C" d="M19.81,27.232c0-1.275-1.549-2.31-3.464-2.31c-1.905,0-3.454,1.034-3.454,2.31s1.549,2.31,3.454,2.31
		C18.261,29.542,19.81,28.508,19.81,27.232L19.81,27.232z"/>
		<path fill="#7E8F75" d="M26.72,27.232c0-1.275-1.549-2.31-3.455-2.31s-3.455,1.034-3.455,2.31s1.549,2.31,3.455,2.31
		S26.72,28.508,26.72,27.232L26.72,27.232z"/>
		<path fill="#D3D3D3" d="M26.72,27.232c0,1.092,1.141,2.004,2.663,2.246v-4.492C27.861,25.227,26.72,26.141,26.72,27.232
		L26.72,27.232z"/>
		<path fill="#8998B0" d="M0.172,24.308c0.616,0.382,1.44,0.615,2.345,0.615c0.923,0,1.768-0.244,2.385-0.64
		c-1.375-0.406-2.938-0.643-4.729-0.656V24.308L0.172,24.308z"/>
		<path fill="#94828D" d="M12.892,22.613c0-0.055-0.01-0.109-0.01-0.164l-0.287,1.094C12.787,23.259,12.892,22.945,12.892,22.613
		L12.892,22.613z"/>
		<path fill="#B2A86D" d="M19.81,22.613c0-1.275-1.549-2.309-3.464-2.309c-1.905,0-3.454,1.033-3.454,2.309
		c0,1.276,1.549,2.31,3.454,2.31C18.261,24.923,19.81,23.889,19.81,22.613L19.81,22.613z"/>
		<path fill="#D45881" d="M26.72,22.613c0-1.275-1.549-2.309-3.455-2.309s-3.455,1.033-3.455,2.309c0,1.276,1.549,2.31,3.455,2.31
		S26.72,23.889,26.72,22.613L26.72,22.613z"/>
		<path fill="#878C81" d="M27.355,21.287c-0.399,0.375-0.635,0.833-0.635,1.326c0,1.093,1.141,2.006,2.663,2.245v-2.007
		C28.757,22.314,28.078,21.793,27.355,21.287L27.355,21.287z"/>
		<path fill="#5FAE9C" d="M19.81,17.994c0-0.203-0.043-0.4-0.121-0.59c-1.532-0.547-3.186-1.032-4.979-1.441
		c-0.07,0.021-0.122,0.049-0.183,0.074l-0.87,3.401c0.626,0.528,1.601,0.866,2.688,0.866C18.261,20.305,19.81,19.27,19.81,17.994
		L19.81,17.994z"/>
		<path fill="#3C7A71" d="M19.897,17.477c-0.062,0.167-0.087,0.34-0.087,0.518c0,1.275,1.549,2.311,3.455,2.311
		c0.714,0,1.375-0.145,1.924-0.391C23.623,19.016,21.864,18.195,19.897,17.477L19.897,17.477z"/>
		<path fill="#E0BD9A" d="M0.172-36.207c11.005,0.048,17.506,3.506,18.567,20.125l0.109,0c2.799,0,4.342,0.93,4.342,5.797
		c0,3.037-3.1,6.15-4.342,6.15c-0.246,0-0.568-0.124-0.924-0.346C14.787,6.242,4.831,15.664,0.172,15.982V-36.207L0.172-36.207z"/>
		<path fill="#A3835B" d="M0.172,18.546c2.764-0.153,9.131-7.485,8.764-8.177l-0.013,0.012c-3.25,3.32-6.576,5.453-8.751,5.602V18.546
		L0.172,18.546z"/>
		<path fill="#070707" d="M0.644,1.612C2.678,1.371,3.775,2.185,5.031,3.66c0.641,0.756,1.564,1.09,2.445,1.472
		c0.176,0.065,1.764,0.56,1.32,0.735c-1.854,0.73-3.577,0.035-4.6-1.601c-0.52-0.845-0.918-1.558-1.795-2.072
		C2.031,2.04,0.75,1.877,0.644,1.612L0.644,1.612z"/>
		<path fill="#3B2115" d="M18.917-11.967c0,0-1.557-9.159-6.358-17.317C9.853-26.3,3.725-23.798,0.172-23.705V-43.31
		c6.567-0.033,16.95-1.598,13.194,9.876C16.841-35.15,19.308-27.566,18.917-11.967L18.917-11.967z"/>
		<path fill-rule="evenodd" clip-rule="evenodd" fill="#343434" d="M1.699-11.061c-0.133,0.44-0.162,0.89-0.074,1.339
		c0.546,2.801,3.439,4.354,8.975,3.388c5.535-0.965,6.758-5.161,6.324-7.812c-0.053-0.32-0.116-0.584-0.196-0.8
		c-0.883-0.084-1.8-0.128-2.741-0.128c-5.839,0-10.762,1.701-12.285,4.022L1.699-11.061L1.699-11.061z"/>
		<path fill-rule="evenodd" clip-rule="evenodd" fill="#424145" d="M6.498-6.093C7.099-6.039,7.755-6.031,8.47-6.075
		c1.004-0.791,2.244-2.229,3.385-4.009c1.215-1.896,2.029-3.735,2.277-4.989h-0.146c-1.003,0-1.979,0.05-2.916,0.145
		c-0.724,0.779-1.494,1.778-2.225,2.917C7.28-9.566,6.378-7.216,6.498-6.093L6.498-6.093z"/>
		<path fill-rule="evenodd" clip-rule="evenodd" fill="#191919" d="M4.789-14.732l0.041,0.005c2.099-0.903,5.062-1.467,8.346-1.467
		c1.854,0,3.604,0.179,5.156,0.498v0.951c-1.357-0.213-2.82-0.329-4.346-0.329c-2.364,0-4.578,0.279-6.478,0.765l-0.063,0.017
		l-0.115,0.03l-0.129,0.035l-0.111,0.031l-0.053,0.015l-0.162,0.046L6.8-14.114l-0.137,0.041l-0.021,0.007l-0.008,0.002l-0.033,0.01
		l-0.146,0.046L6.428-14l-0.024,0.008l-0.166,0.054l-0.03,0.011l-0.153,0.052l-0.029,0.01l-0.031,0.011l-0.115,0.04l-0.109,0.04
		l-0.087,0.032l-0.076,0.029L5.47-13.662l-0.053,0.021l-0.145,0.058l-0.054,0.022l-0.116,0.048l-0.029,0.012l-0.01,0.005l-0.141,0.06
		l-0.058,0.025l-0.131,0.059l-0.038,0.018l-0.123,0.057l-0.068,0.033l-0.088,0.043l-0.076,0.038l-0.105,0.053l-0.045,0.023
		l-0.119,0.062l-0.055,0.029l-0.105,0.059l-0.02,0.011H3.891l-0.021,0.012l-0.105,0.06l-0.044,0.025l-0.112,0.067l-0.041,0.024
		l-0.112,0.07l-0.041,0.026l-0.09,0.058L3.3-12.567l-0.006,0.004l-0.007,0.004l-0.11,0.075l-0.023,0.016
		c-0.039,0.027-0.078,0.054-0.115,0.082l-0.021,0.015l-0.11,0.081L2.9-12.284l-0.014,0.01l-0.102,0.079l-0.01,0.008l-0.012,0.009
		l-0.087,0.071l-0.04,0.033l-0.09,0.078l-0.02,0.016c-0.033,0.029-0.066,0.059-0.099,0.089l-0.001,0.001l-0.004,0.003
		c-0.031,0.029-0.061,0.058-0.09,0.086l-0.021,0.02c-0.027,0.028-0.057,0.056-0.083,0.083l-0.024,0.025
		c-0.027,0.028-0.053,0.055-0.079,0.083l-0.017,0.019c-0.027,0.03-0.055,0.06-0.08,0.09l-0.003,0.003l-0.003,0.003
		c-0.025,0.029-0.05,0.059-0.074,0.088l-0.02,0.023c-0.022,0.028-0.045,0.057-0.066,0.085l-0.023,0.031
		c-0.049,0.065-0.096,0.13-0.139,0.196c-0.01-0.045-0.018-0.091-0.025-0.138c-0.464-0.092-0.97-0.153-1.503-0.178v-2.864
		C1.937-14.249,3.544-14.435,4.789-14.732L4.789-14.732z M2.527-11.981c-0.033,0.029-0.066,0.059-0.099,0.089L2.527-11.981
		L2.527-11.981z"/>
	</g>
</svg>