<svg width="100%" height="100%" version="1.1" xmlns="http://www.w3.org/2000/svg" xmlns:xlink="http://www.w3.org/1999/xlink">
	<g transform="translate(41,53)">
		<g transform="scale(0.95)">
			<path fill="#3954A3" d="M-31.358,33.435v-11.43c-2.505,2.103-4.334,4.403-5.666,6.695C-35.249,30.405-33.355,31.986-31.358,33.435
			L-31.358,33.435z"/>
			<path fill="#3954A3" d="M31.361,22.005v11.428c1.997-1.449,3.89-3.029,5.663-4.733C35.694,26.409,33.866,24.107,31.361,22.005
			L31.361,22.005z M0.51,43.591H-0.51H0.51L0.51,43.591z"/>
			<path fill="#F4EC4F" d="M31.361,22.005C25.454,17.05,15.788,13.2,0,13.2c-15.789,0-25.453,3.85-31.359,8.805v11.43
			c8.681,6.297,19.327,10.048,30.848,10.156H0.51c11.521-0.108,22.169-3.859,30.851-10.158V22.005L31.361,22.005z"/>
			<path fill="#3954A3" d="M5.262,18.495L0,22.04l-5.263-3.544v24.844c1.732,0.17,3.486,0.258,5.263,0.258
			c1.775,0,3.531-0.088,5.262-0.258V18.495L5.262,18.495z"/>
			<path fill="#514C4C" d="M17.84-17.705c1.807,0,16.644,2.868,16.644-8.236c0-5.498-11.173-2.217-15.724-2.217
			C8.532-28.158,9.766-17.705,17.84-17.705L17.84-17.705z"/>
			<path fill="#83582A" d="M12.426,14.666L0.432,22.67l-12.354-8.676c1.418-1.083,2.209-2.023,2.944-3.536
			c1.448-2.977,5.081-5.07,9.41-5.07c4.154,0,7.628,2.173,8.82,5.234C9.901,12.286,11.04,13.04,12.426,14.666L12.426,14.666z"/>
			<path fill="#83582A" d="M0.354,15.278c-10.417,0.405-13.043-6.919-18.047-22.292c-4.2,0-4.451-15.181,0.402-9.354
			c1.564-16.094,7.669-19.475,17.571-19.475c9.661,0,15.707,3.218,17.449,18.325c4.02-4.828,5.469,10.503,0.521,10.503
			C12.451,8.082,10.772,14.874,0.354,15.278L0.354,15.278z"/>
			<path fill="#5F3F1E" d="M-9.446,11.625L-9.446,11.625c-0.339,0.674,5.298,5.67,9.472,5.67c4.133,0,9.953-5.191,9.617-5.864l-0.001,0
			c-2.219,2.442-5.02,3.682-9.288,3.847C-4.049,15.45-7.059,14.24-9.446,11.625L-9.446,11.625z"/>
			<path fill="#2B3B49" d="M17.325-31.447c0,0-0.279-8.196-5.557-10.828c-4.624-2.306-19.072-2.511-28.63,7.048
			c-1.711,1.71,0.171,15.032,0.171,15.032S-11.881-31.447,17.325-31.447L17.325-31.447z"/>
			<path fill="#FFFFFF" d="M-2.738-29.225c0,0,8.481,8.278,21.571,4.771c5.715-1.532,10.377-6.148,15.651-1.486
			c0.058-0.988-0.756-3.043-3.228-3.797c-2.473-0.753-9.764,0.766-13.733-1.508C17.523-31.246,3.09-33.658-2.738-29.225L-2.738-29.225
			z"/>
			<path fill="#384A9D" d="M31.361,22.005v11.428c1.997-1.449,3.89-3.029,5.663-4.733C35.694,26.409,33.866,24.107,31.361,22.005
			L31.361,22.005z M0.51,43.591H0.025H0.51L0.51,43.591z"/>
			<path fill="#CDC540" d="M31.361,22.005c-5.905-4.953-15.563-8.801-31.336-8.805v30.391H0.51
			c11.521-0.108,22.169-3.859,30.851-10.158V22.005L31.361,22.005z"/>
			<path fill="#384A9D" d="M5.262,18.495l-5.237,3.528v21.573c1.767,0,3.515-0.088,5.237-0.257V18.495L5.262,18.495z"/>
			<path fill="#474343" d="M17.84-17.705c1.807,0,16.644,2.868,16.644-8.236c0-5.498-11.173-2.217-15.724-2.217
			C8.532-28.158,9.766-17.705,17.84-17.705L17.84-17.705z"/>
			<path fill="#714D29" d="M12.426,14.666L0.432,22.67l-0.407-0.286V5.393C0.159,5.39,0.295,5.388,0.432,5.388
			c4.154,0,7.628,2.173,8.82,5.234C9.901,12.286,11.04,13.04,12.426,14.666L12.426,14.666z"/>
			<path fill="#714D29" d="M0.354,15.278c-0.111,0.004-0.22,0.007-0.329,0.009v-51.128l0.255-0.002c9.661,0,15.707,3.218,17.449,18.325
			c4.02-4.828,5.469,10.503,0.521,10.503C12.451,8.082,10.772,14.874,0.354,15.278L0.354,15.278z"/>
			<path fill="#52381E" d="M0.025,17.296L0.025,17.296c4.134,0,9.954-5.191,9.618-5.864l-0.001,0c-2.219,2.442-5.02,3.682-9.288,3.847
			c-0.111,0.004-0.22,0.007-0.329,0.01V17.296L0.025,17.296z"/>
			<path fill="#283541" d="M17.325-31.447c0,0-0.279-8.196-5.557-10.828c-2.208-1.101-6.656-1.722-11.743-1.031v13.542
			C4.532-30.776,10.2-31.447,17.325-31.447L17.325-31.447z"/>
			<path fill="#D3D3D3" d="M0.025-27.16c3.504,2.188,10.146,5.026,18.808,2.705c5.715-1.532,10.377-6.148,15.651-1.486
			c0.058-0.988-0.756-3.043-3.228-3.797c-2.473-0.753-9.764,0.766-13.733-1.508c0,0-10.812-1.806-17.498,0.582V-27.16L0.025-27.16z"/>
		</g>
	</g>
</svg>