<svg width="100%" height="100%" version="1.1" xmlns="http://www.w3.org/2000/svg" xmlns:xlink="http://www.w3.org/1999/xlink">
	<g transform="translate(41,51)">
		<path fill="#FFFBFD" d="M-30.381,35.527V25.231c-2.299,1.857-4.009,3.883-5.279,5.91C-34.001,32.716-32.237,34.18-30.381,35.527
	L-30.381,35.527z"/>
		<path fill="#FFFBFD" d="M30.382,25.231v10.296c1.855-1.347,3.62-2.812,5.279-4.387C34.391,29.115,32.681,27.089,30.382,25.231
	L30.382,25.231z"/>
		<path fill="#57C4CF" d="M30.382,25.231c-5.723-4.625-15.086-8.217-30.381-8.217c-15.295,0-24.66,3.592-30.382,8.217v10.296
	c8.535,6.191,19.031,9.846,30.382,9.846c11.35,0,21.845-3.654,30.381-9.845V25.231L30.382,25.231z"/>
		<path fill="#F0CEAC" d="M11.422,17.533c0,4.781-5.114,7.469-11.421,7.469c-6.309,0-11.422-2.688-11.422-7.469
	c0-1.201,0.008-2.598,0.904-3.382c0.804-0.703,1.583-1.472,2.176-2.532c1.309-2.341,5.049-2.744,8.342-2.744
	c3.361,0,7.514,0.341,8.5,2.879c0.482,1.241,1.135,1.58,2.032,2.424C11.335,14.932,11.422,16.343,11.422,17.533L11.422,17.533z"/>
		<path fill="#FFFBFD" d="M15.038,18.492l-3.375,12.441c-2.197-2.781-5.793-4.941-11.662-4.941c-5.871,0-9.462,2.16-11.659,4.941
	l-3.379-12.441l4.5-4.32c0,0,0.708,2.729,3.826,5.937c3.12,3.206,6.712,4.893,6.712,4.893s3.591-1.688,6.71-4.893
	c3.12-3.208,3.825-5.937,3.825-5.937L15.038,18.492L15.038,18.492z"/>
		<path fill="#EA2049" d="M29.592,24.62c-1.726-1.292-3.702-2.442-5.884-3.418c0.582,1.025,1.164,2.049,1.747,3.074
	c0.323,0.568-0.347,1.209-0.66,1.758c-1.175,2.069-2.351,4.137-3.526,6.206c-1.404-2.472-2.81-4.944-4.214-7.415
	c-0.159-0.28-0.097-0.327,0.071-0.623c0.422-0.744,0.845-1.488,1.268-2.232c0.395-0.693,0.788-1.387,1.182-2.079
	c0.199-0.35-0.158-0.311-0.712-0.476c-1.265-0.379-2.567-0.707-3.894-0.988c0.119,0.144-0.003,0.33-0.047,0.491
	c-0.102,0.374-0.203,0.749-0.305,1.122c-0.057,0.207-0.111,0.405-0.166,0.611c-0.312,1.147-0.623,2.293-0.935,3.439
	c-0.62,2.28-1.239,4.561-1.858,6.839c-1.328-1.681-3.268-3.209-5.934-4.092c-0.318-0.103-2.235-0.74-2.376-0.492
	c-0.169,0.297-0.337,0.593-0.507,0.89c-0.947,1.668-1.896,3.335-2.842,5.003c-0.949-1.668-1.897-3.335-2.844-5.003
	c-0.169-0.297-0.337-0.593-0.506-0.89c-0.142-0.248-2.06,0.389-2.379,0.494c-2.665,0.88-4.604,2.41-5.932,4.089
	c-0.619-2.279-1.238-4.559-1.857-6.839c-0.308-1.133-0.616-2.266-0.923-3.399c-0.053-0.191-0.104-0.378-0.154-0.569
	c-0.101-0.369-0.202-0.739-0.301-1.108c-0.049-0.178-0.208-0.424-0.073-0.586c-1.229,0.26-2.435,0.561-3.611,0.903
	c-0.446,0.132-1.219,0.168-1.021,0.517c0.383,0.672,0.766,1.345,1.147,2.019c0.432,0.759,0.862,1.517,1.293,2.275
	c0.178,0.313,0.273,0.386,0.104,0.683c-1.405,2.471-2.81,4.942-4.214,7.415c-1.176-2.069-2.352-4.136-3.526-6.204
	c-0.313-0.55-0.983-1.19-0.66-1.759c0.583-1.024,1.165-2.049,1.746-3.074c-1.842,0.825-3.522,1.77-5.049,2.82
	c-0.354,0.244-0.699,0.494-1.034,0.748c-0.122,0.092-0.589,0.362-0.589,0.48c0,0.155,0,0.309,0,0.464c0,1.609,0,3.219,0,4.829v4.985
	c4.63,3.359,9.839,5.97,15.448,7.656l1.232-2.167c1.021-1.798,2.044-3.597,3.066-5.395c1.005,1.767,2.008,3.533,3.012,5.299
	c0.436,0.767,0.872,1.533,1.308,2.3c0.12,0.211-0.27,0.604-0.381,0.799l-0.486,0.855c2.348,0.326,4.745,0.498,7.183,0.498l0,0
	c2.438,0,4.833-0.172,7.182-0.498l-0.43-0.754c-0.108-0.191-0.564-0.678-0.449-0.881c0.422-0.742,0.843-1.482,1.264-2.224
	c1.022-1.798,2.045-3.597,3.066-5.395c1.005,1.767,2.009,3.533,3.014,5.299l1.286,2.263c5.608-1.686,10.817-4.297,15.448-7.656
	v-1.13c0-0.853,0-1.705,0-2.557c0-1.437,0-2.873,0-4.311c0-0.585,0-1.172,0-1.757C30.382,25.185,30.272,25.129,29.592,24.62
	L29.592,24.62z"/>
		<path fill="#DEE35D" d="M14.954,18.845c-0.012,0.03-0.024,0.06-0.031,0.089c-0.102,0.375-0.203,0.749-0.305,1.122
	c-0.057,0.208-0.111,0.406-0.167,0.611c-0.312,1.148-0.623,2.293-0.934,3.439c-0.62,2.28-1.239,4.561-1.858,6.84
	c0.002,0.001,0.003,0.002,0.004,0.004L14.954,18.845L14.954,18.845z"/>
		<polygon fill="#DEE35D" points="-6.695,27.216 -6.694,27.215 -6.695,27.216 "/>
		<path fill="#DEE35D" d="M3.528,26.307c0.705,0.126,1.369,0.286,1.992,0.481C5.032,26.63,3.958,26.298,3.528,26.307L3.528,26.307z"/>
		<path fill="#DEE35D" d="M-9.923,29.165c0.01-0.008,0.02-0.018,0.031-0.025C-9.904,29.147-9.914,29.157-9.923,29.165L-9.923,29.165z"
				/>
		<path fill="#DEE35D" d="M10.528,29.706c0.012,0.012,0.023,0.022,0.035,0.033C10.552,29.728,10.54,29.718,10.528,29.706
	L10.528,29.706z"/>
		<path fill="#DEE35D" d="M11.075,30.266c0.026,0.029,0.055,0.058,0.082,0.088C11.13,30.324,11.102,30.295,11.075,30.266
	L11.075,30.266z"/>
		<path fill="#DEE35D" d="M-5.535,26.793c0.625-0.198,1.295-0.36,2.005-0.486C-3.965,26.299-5.052,26.637-5.535,26.793L-5.535,26.793z
	"/>
		<path fill="#DEE35D" d="M-11.341,30.57c-0.108,0.125-0.217,0.249-0.318,0.375l0.001,0.005
	C-11.556,30.821-11.449,30.695-11.341,30.57L-11.341,30.57z"/>
		<path fill="#DEE35D" d="M-11.209,30.415c0.08-0.09,0.164-0.179,0.247-0.268C-11.045,30.236-11.129,30.325-11.209,30.415
	L-11.209,30.415z"/>
		<path fill="#DEE35D" d="M-10.633,29.81c0.057-0.055,0.113-0.108,0.17-0.163C-10.52,29.701-10.576,29.756-10.633,29.81L-10.633,29.81
	z"/>
		<path fill="#DEE35D" d="M-10.463,29.647c0.174-0.164,0.351-0.325,0.54-0.482C-10.11,29.321-10.29,29.482-10.463,29.647
	L-10.463,29.647z"/>
		<path fill="#DEE35D" d="M-11.341,30.57c0.044-0.052,0.086-0.104,0.132-0.155C-11.254,30.466-11.296,30.518-11.341,30.57
	L-11.341,30.57z"/>
		<path fill="#DEE35D" d="M-10.962,30.147c0.108-0.114,0.215-0.227,0.329-0.338C-10.745,29.921-10.854,30.034-10.962,30.147
	L-10.962,30.147z"/>
		<path fill="#DEE35D" d="M11.659,30.946c-0.158-0.201-0.327-0.398-0.502-0.592C11.333,30.549,11.501,30.746,11.659,30.946
	L11.659,30.946z"/>
		<path fill="#DEE35D" d="M10.563,29.739c0.179,0.171,0.347,0.349,0.512,0.527C10.91,30.085,10.741,29.911,10.563,29.739
	L10.563,29.739z"/>
		<path fill="#EB2427" d="M-3.349,26.35c0.164,0.29,0.329,0.578,0.493,0.868c0.901-0.191,1.854-0.305,2.857-0.305
	c1,0,1.953,0.114,2.854,0.305c0.165-0.29,0.329-0.578,0.493-0.868c0.021-0.038,0.088-0.054,0.18-0.055
	c-1.076-0.19-2.245-0.299-3.527-0.299c-1.285,0-2.455,0.108-3.53,0.299C-3.437,26.296-3.371,26.312-3.349,26.35L-3.349,26.35z"/>
		<path fill="#DEE35D" d="M-6.695,27.216c-1.239,0.516-2.297,1.171-3.198,1.924C-8.994,28.394-7.933,27.732-6.695,27.216
	L-6.695,27.216z"/>
		<path fill="#DEE35D" d="M-14.896,19.029c0.1,0.37,0.2,0.739,0.3,1.109c0.051,0.191,0.103,0.377,0.155,0.569
	c0.308,1.133,0.616,2.266,0.923,3.399c0.621,2.28,1.24,4.561,1.858,6.84l0-0.001l-3.355-12.386
	C-15.036,18.71-14.935,18.889-14.896,19.029L-14.896,19.029z"/>
		<path fill="#DEE35D" d="M-5.535,26.793c-0.404,0.127-0.789,0.269-1.159,0.422c0.311-0.13,0.631-0.249,0.965-0.359
	C-5.688,26.843-5.621,26.821-5.535,26.793L-5.535,26.793z"/>
		<path fill="#DEE35D" d="M10.528,29.706c-1.278-1.23-2.915-2.26-5.008-2.918c0.091,0.03,0.162,0.053,0.205,0.066
	C7.716,27.515,9.3,28.533,10.528,29.706L10.528,29.706z"/>
		<path fill="#EB2427" d="M-12.098,32.826c0,0,3.558-4.402,9.242-5.607c-0.164-0.29-0.329-0.578-0.493-0.868
	c-0.022-0.038-0.087-0.054-0.18-0.055c-0.71,0.127-1.38,0.288-2.005,0.486c-0.086,0.027-0.153,0.049-0.194,0.062
	c-0.333,0.111-0.654,0.231-0.965,0.361c-0.001,0-0.001,0-0.001,0c-1.238,0.515-2.299,1.177-3.198,1.923
	c-0.011,0.008-0.021,0.017-0.031,0.026c-0.188,0.157-0.366,0.318-0.54,0.482c-0.057,0.054-0.113,0.108-0.17,0.163
	c-0.113,0.111-0.221,0.226-0.329,0.338c-0.083,0.088-0.167,0.176-0.247,0.267c-0.046,0.051-0.087,0.103-0.132,0.154
	c-0.108,0.126-0.215,0.252-0.317,0.38l-0.001-0.005c0,0,0,0,0,0.001c-0.619-2.28-1.238-4.559-1.858-6.839
	c-0.307-1.133-0.615-2.267-0.923-3.4c-0.052-0.191-0.104-0.378-0.155-0.568c-0.101-0.371-0.201-0.739-0.3-1.107
	c-0.039-0.142-0.14-0.322-0.118-0.472l-0.009-0.036C-15.339,18.543-12.098,32.826-12.098,32.826L-12.098,32.826z"/>
		<path fill="#EB2427" d="M3.349,26.35c-0.164,0.29-0.328,0.578-0.493,0.868c5.686,1.205,9.247,5.607,9.247,5.607
	s3.244-14.249,2.933-14.295l-0.022,0.085c-0.01,0.072-0.033,0.145-0.059,0.216l-3.291,12.105c-0.001-0.002-0.002-0.002-0.004-0.004
	c-0.158-0.199-0.326-0.397-0.502-0.592c-0.027-0.029-0.056-0.06-0.082-0.089c-0.165-0.177-0.333-0.353-0.512-0.526
	c-0.012-0.011-0.023-0.021-0.035-0.032c-1.229-1.174-2.812-2.193-4.803-2.852c-0.043-0.014-0.114-0.038-0.205-0.066
	c-0.623-0.196-1.287-0.357-1.992-0.482C3.437,26.296,3.37,26.312,3.349,26.35L3.349,26.35z"/>
		<path fill="#DEE35D" d="M14.667,19.531c0.025-0.071,0.05-0.144,0.058-0.217L14.667,19.531L14.667,19.531z"/>
		<path fill="#F0CEAC" d="M18.211-12.435c-2.985-21.528-33.204-21.528-36.192-0.002c-4.699-3.126-4.149,10.055,0.518,10.055
	l0.004-0.099C-14.702,9.21-5.076,17.667,0.115,17.667c5.193,0,14.821-8.461,17.575-20.155l0.006,0.106
	C22.364-2.381,22.913-15.567,18.211-12.435L18.211-12.435z"/>
		<path fill="#7D3F20" d="M6.899,5.824C6.55,3.048,4.37,0.68,0.153,0.441c-3.787,0.34-5.456,2.071-6.461,4.935
	c-3.909-1.487-6.719-3.127-9.092-6.282c-0.805-2.553-1.249-5.345-1.249-8.272c0-3.552,1.737-8.599,4.807-11.695
	c3.891,1.144,6.309-2.119,6.309-2.119s0.016,2.123-3.671,2.946c2.736,0.338,4.72-0.003,6.158-0.71
	c1.471,2.244,4.368,4.032,10.016,3.333C2.681-18.38,2.7-20.851,2.7-20.851s3.441,4.648,8.84,1.857C8.626-18.281,6.353-21,6.353-21
	s4.115,2.587,7.107,1.183c2.484,3.102,3.87,7.467,3.87,10.639c0,2.875-0.43,5.621-1.208,8.138
	C13.773,2.705,10.501,4.456,6.899,5.824L6.899,5.824z M-11.233-21.446c0.756-0.662,1.585-1.203,2.479-1.583
	C-9.025-22.737-9.956-21.812-11.233-21.446L-11.233-21.446z M12.045-21.328c0.265,0.239,0.52,0.491,0.767,0.756
	c-1.322-0.295-2.218-1.267-2.218-1.267S11.185-21.525,12.045-21.328L12.045-21.328z M0.115,17.667
	c5.345,0,15.525-7.577,17.935-19.428c1.284-2.819,1.9-6.82,2.957-8.842c1.111-2.129,0.513-4.787,0.578-8.34
	c0.13-7.043,1.152-17.876-0.594-11.816c-0.514,1.786-2.867,4.336-2.867,4.336c0.204-5.501-2.096-9.379-2.233-8.853
	c-0.138,0.528-1.642,6.312-1.642,6.312c-2.006-3.367-1.648-6.917-4.823-10.58c0,0,0.161,8.41,0.341,7.812
	c0.18-0.599-1.43-2.127-1.86-3.221c-0.659-1.671-1.978-7.866-3.864-7.744c0,0-1.401,5.158-1.539,7.375
	c-0.139,2.217-1.811-3.612-3.604-4.878c-1.793-1.267-2.72-4.818-3.548-5.135s0,1.373,0,1.373l0.495,10.61
	c-0.576-1.086-4.471-9.647-4.633-9.766c-1.281,5.392-3.327,7.026-7.006,14.116l1.213-8.31c-3.682,2.527-6.441,10.946-6.115,15.338
	l0.127-8.876c-1.96,3.015-4.132,7.835-3.667,11.696l-1.385-3.031c1.125,6.89,2.332,7.638,6.213,11.793
	C-18-8.883-17.266,17.667,0.115,17.667L0.115,17.667z M-5.734,5.639C-3.035,2.012,4.197,2.945,6.413,6
	C2.704,7.273-2.129,7.366-5.734,5.639L-5.734,5.639z"/>
		<path fill-rule="evenodd" clip-rule="evenodd" fill="#333333" d="M0.732-12.126l14.661,0.014c-1.256,3.415-4.338,7.502-7.248,8.111
	c-1.422,0.02-3.275-0.02-4.427-0.011C1.866-4.545,0.747-6.008,0.744-7.488L0.739-9.123H-0.74l-0.005,1.634
	c-0.003,1.48-1.123,2.943-2.974,3.477c-1.151-0.009-3.004,0.03-4.428,0.011c-2.909-0.609-5.991-4.696-7.247-8.111l14.66-0.014
	l-0.004,1.508h1.474L0.732-12.126L0.732-12.126z"/>
		<path fill-rule="evenodd" clip-rule="evenodd" fill="#191919" d="M0.732-12.126l14.661,0.014c-0.073,0.199-0.152,0.398-0.237,0.6
	c-4.464,0.668-9.581,1.047-15.021,1.047c-5.558,0-10.778-0.396-15.31-1.091c-0.077-0.187-0.15-0.373-0.218-0.557l14.66-0.014
	l-0.004,1.508h1.474L0.732-12.126L0.732-12.126z"/>
		<path fill="#D3D2D2" d="M30.382,25.231v10.296c1.855-1.347,3.62-2.812,5.279-4.387C34.391,29.115,32.681,27.089,30.382,25.231
	L30.382,25.231z"/>
		<path fill="#46919A" d="M30.382,25.231c-5.723-4.625-15.086-8.217-30.381-8.217h-0.035v28.359h0.035
	c11.35,0,21.845-3.654,30.381-9.845V25.231L30.382,25.231z"/>
		<path fill="#E0BD9A" d="M11.422,17.533c0,4.781-5.114,7.469-11.421,7.469l-0.035-0.001V8.875h0.035c3.361,0,7.514,0.341,8.5,2.879
	c0.482,1.241,1.135,1.58,2.032,2.424C11.335,14.932,11.422,16.343,11.422,17.533L11.422,17.533z"/>
		<path fill="#D3D2D2" d="M15.038,18.492l-3.375,12.441c-2.197-2.781-5.793-4.941-11.662-4.941l-0.035,0.001v-1.007l0.035,0.017
	c0,0,3.591-1.688,6.71-4.893c3.12-3.208,3.825-5.937,3.825-5.937L15.038,18.492L15.038,18.492z"/>
		<path fill="#AB2441" d="M29.592,24.62c-1.726-1.292-3.702-2.442-5.884-3.418c0.582,1.025,1.164,2.049,1.747,3.074
	c0.323,0.568-0.347,1.209-0.66,1.758c-1.175,2.069-2.351,4.137-3.526,6.206c-1.404-2.472-2.81-4.944-4.214-7.415
	c-0.159-0.28-0.097-0.327,0.071-0.623c0.422-0.744,0.845-1.488,1.268-2.232c0.395-0.693,0.788-1.387,1.182-2.079
	c0.199-0.35-0.158-0.311-0.712-0.476c-1.265-0.379-2.567-0.707-3.894-0.988c0.119,0.144-0.003,0.33-0.047,0.491
	c-0.102,0.374-0.203,0.749-0.305,1.122c-0.057,0.207-0.111,0.405-0.166,0.611c-0.312,1.147-0.623,2.293-0.935,3.439
	c-0.62,2.28-1.239,4.561-1.858,6.839c-1.328-1.681-3.268-3.209-5.934-4.092c-0.318-0.103-2.235-0.74-2.376-0.492
	c-0.169,0.297-0.337,0.593-0.507,0.89c-0.947,1.668-1.896,3.335-2.842,5.003l-0.035-0.061v13.195h0.035
	c2.438,0,4.833-0.172,7.182-0.498l-0.43-0.754c-0.108-0.191-0.564-0.678-0.449-0.881c0.422-0.742,0.843-1.482,1.264-2.224
	c1.022-1.798,2.045-3.597,3.066-5.395c1.005,1.767,2.009,3.533,3.014,5.299l1.286,2.263c5.608-1.686,10.817-4.297,15.448-7.656
	v-1.13c0-0.853,0-1.705,0-2.557c0-1.437,0-2.873,0-4.311c0-0.585,0-1.172,0-1.757C30.382,25.185,30.272,25.129,29.592,24.62
	L29.592,24.62z"/>
		<path fill="#BABD4E" d="M14.954,18.845c-0.012,0.03-0.024,0.06-0.031,0.089c-0.102,0.375-0.203,0.749-0.305,1.122
	c-0.057,0.208-0.111,0.406-0.167,0.611c-0.312,1.148-0.623,2.293-0.934,3.439c-0.62,2.28-1.239,4.561-1.858,6.84
	c0.002,0.001,0.003,0.002,0.004,0.004L14.954,18.845L14.954,18.845z"/>
		<path fill="#BABD4E" d="M3.528,26.307c0.705,0.126,1.369,0.286,1.992,0.481C5.032,26.63,3.958,26.298,3.528,26.307L3.528,26.307z"/>
		<path fill="#BABD4E" d="M10.528,29.706c0.012,0.012,0.023,0.022,0.035,0.033C10.552,29.728,10.54,29.718,10.528,29.706
	L10.528,29.706z"/>
		<path fill="#BABD4E" d="M11.075,30.266c0.026,0.029,0.055,0.058,0.082,0.088C11.13,30.324,11.102,30.295,11.075,30.266
	L11.075,30.266z"/>
		<path fill="#BABD4E" d="M11.659,30.946c-0.158-0.201-0.327-0.398-0.502-0.592C11.333,30.549,11.501,30.746,11.659,30.946
	L11.659,30.946z"/>
		<path fill="#BABD4E" d="M10.563,29.739c0.179,0.171,0.347,0.349,0.512,0.527C10.91,30.085,10.741,29.911,10.563,29.739
	L10.563,29.739z"/>
		<path fill="#D22029" d="M-0.034,26.913h0.035c1,0,1.953,0.114,2.854,0.305c0.165-0.29,0.329-0.578,0.493-0.868
	c0.021-0.038,0.088-0.054,0.18-0.055c-1.076-0.19-2.245-0.299-3.527-0.299h-0.035V26.913L-0.034,26.913z"/>
		<path fill="#BABD4E" d="M10.528,29.706c-1.278-1.23-2.915-2.26-5.008-2.918c0.091,0.03,0.162,0.053,0.205,0.066
	C7.716,27.515,9.3,28.533,10.528,29.706L10.528,29.706z"/>
		<path fill="#D22029" d="M3.349,26.35c-0.164,0.29-0.328,0.578-0.493,0.868c5.686,1.205,9.247,5.607,9.247,5.607
	s3.244-14.249,2.933-14.295l-0.022,0.085c-0.01,0.072-0.033,0.145-0.059,0.216l-3.291,12.105c-0.001-0.002-0.002-0.002-0.004-0.004
	c-0.158-0.199-0.326-0.397-0.502-0.592c-0.027-0.029-0.056-0.06-0.082-0.089c-0.165-0.177-0.333-0.353-0.512-0.526
	c-0.012-0.011-0.023-0.021-0.035-0.032c-1.229-1.174-2.812-2.193-4.803-2.852c-0.043-0.014-0.114-0.038-0.205-0.066
	c-0.623-0.196-1.287-0.357-1.992-0.482C3.437,26.296,3.37,26.312,3.349,26.35L3.349,26.35z"/>
		<path fill="#BABD4E" d="M14.667,19.531c0.025-0.071,0.05-0.144,0.058-0.217L14.667,19.531L14.667,19.531z"/>
		<path fill="#E0BD9A" d="M18.211-12.435C16.709-23.264,8.317-28.644-0.034-28.578v46.242c0.051,0.001,0.1,0.003,0.149,0.003
	c5.193,0,14.821-8.461,17.575-20.155l0.006,0.106C22.364-2.381,22.913-15.567,18.211-12.435L18.211-12.435z"/>
		<path fill="#6A3820" d="M6.899,5.824C6.55,3.048,4.37,0.68,0.153,0.441L-0.034,0.46v2.832C2.575,3.327,5.22,4.355,6.413,6
	C4.46,6.669,2.198,7.013-0.034,6.936v10.728c0.051,0,0.099,0.003,0.149,0.003c5.345,0,15.525-7.577,17.935-19.428
	c1.284-2.819,1.9-6.82,2.957-8.842c1.111-2.129,0.513-4.787,0.578-8.34c0.13-7.043,1.152-17.876-0.594-11.816
	c-0.514,1.786-2.867,4.336-2.867,4.336c0.204-5.501-2.096-9.379-2.233-8.853c-0.138,0.528-1.642,6.312-1.642,6.312
	c-2.006-3.367-1.648-6.917-4.823-10.58c0,0,0.161,8.41,0.341,7.812c0.18-0.599-1.43-2.127-1.86-3.221
	c-0.659-1.671-1.978-7.866-3.864-7.744c0,0-1.401,5.158-1.539,7.375c-0.109,1.767-1.194-1.574-2.537-3.646v20.796
	c1.658,0.77,3.922,1.129,7.004,0.748C2.681-18.38,2.7-20.851,2.7-20.851s3.441,4.648,8.84,1.857C8.626-18.281,6.353-21,6.353-21
	s4.115,2.587,7.107,1.183c2.484,3.102,3.87,7.467,3.87,10.639c0,2.875-0.43,5.621-1.208,8.138
	C13.773,2.705,10.501,4.456,6.899,5.824L6.899,5.824z M12.045-21.328c0.265,0.239,0.52,0.491,0.767,0.756
	c-1.322-0.295-2.218-1.267-2.218-1.267S11.185-21.525,12.045-21.328L12.045-21.328z"/>
		<path fill-rule="evenodd" clip-rule="evenodd" fill="#302F2F" d="M0.732-12.126l14.661,0.014c-1.256,3.415-4.338,7.502-7.248,8.111
	c-1.422,0.02-3.275-0.02-4.427-0.011C1.866-4.545,0.747-6.008,0.744-7.488L0.739-9.123h-0.773v-1.496h0.771L0.732-12.126
	L0.732-12.126z"/>
		<path fill-rule="evenodd" clip-rule="evenodd" fill="#191919" d="M0.732-12.126l14.661,0.014c-0.073,0.199-0.152,0.398-0.237,0.6
	c-4.464,0.668-9.581,1.047-15.021,1.047h-0.169v-0.153h0.771L0.732-12.126L0.732-12.126z"/>
	</g>
</svg>